<svg width="20" height="20" viewBox="0 0 20 20" fill="none" xmlns="http://www.w3.org/2000/svg">
<g id="Add">
<path id="Vector" d="M10.35 4.35C10.35 4.01863 10.0814 3.75 9.75 3.75C9.41863 3.75 9.15 4.01863 9.15 4.35V9.15H4.35C4.01863 9.15 3.75 9.41863 3.75 9.75C3.75 10.0814 4.01863 10.35 4.35 10.35H9.15V15.15C9.15 15.4814 9.41863 15.75 9.75 15.75C10.0814 15.75 10.35 15.4814 10.35 15.15V10.35H15.15C15.4814 10.35 15.75 10.0814 15.75 9.75C15.75 9.41863 15.4814 9.15 15.15 9.15H10.35V4.35Z" fill="black"/>
</g>
</svg>
