<svg width="18" height="18" viewBox="0 0 18 18" fill="none" xmlns="http://www.w3.org/2000/svg">
<path id="alarm" d="M8.875 17.1875C7.83333 17.1875 6.85764 16.9896 5.94792 16.5937C5.0382 16.1979 4.24653 15.6632 3.57292 14.9896C2.89931 14.316 2.36458 13.5243 1.96875 12.6146C1.57292 11.7049 1.375 10.7292 1.375 9.6875C1.375 8.64583 1.57292 7.67014 1.96875 6.76042C2.36458 5.85069 2.89931 5.05903 3.57292 4.38542C4.24653 3.71181 5.0382 3.17708 5.94792 2.78125C6.85764 2.38542 7.83333 2.1875 8.875 2.1875C9.91667 2.1875 10.8924 2.38542 11.8021 2.78125C12.7118 3.17708 13.5035 3.71181 14.1771 4.38542C14.8507 5.05903 15.3854 5.85069 15.7813 6.76042C16.1771 7.67014 16.375 8.64583 16.375 9.6875C16.375 10.7292 16.1771 11.7049 15.7813 12.6146C15.3854 13.5243 14.8507 14.316 14.1771 14.9896C13.5035 15.6632 12.7118 16.1979 11.8021 16.5937C10.8924 16.9896 9.91667 17.1875 8.875 17.1875ZM11.2083 13.1875L12.375 12.0208L9.70833 9.35417V5.52083H8.04167V10.0208L11.2083 13.1875ZM3.54167 0.8125L4.70833 1.97917L1.16667 5.52083L0 4.35417L3.54167 0.8125ZM14.2083 0.8125L17.75 4.35417L16.5833 5.52083L13.0417 1.97917L14.2083 0.8125ZM8.875 15.5208C10.5 15.5208 11.8785 14.9549 13.0104 13.8229C14.1424 12.691 14.7083 11.3125 14.7083 9.6875C14.7083 8.0625 14.1424 6.68403 13.0104 5.55208C11.8785 4.42014 10.5 3.85417 8.875 3.85417C7.25 3.85417 5.87153 4.42014 4.73958 5.55208C3.60764 6.68403 3.04167 8.0625 3.04167 9.6875C3.04167 11.3125 3.60764 12.691 4.73958 13.8229C5.87153 14.9549 7.25 15.5208 8.875 15.5208Z" fill="#1C1B1F"/>
</svg>
