<svg width="16" height="16" viewBox="0 0 16 16" fill="none" xmlns="http://www.w3.org/2000/svg">
<g id="Sidebar">
<path id="Vector" d="M3.19499 12.7655C3.0741 12.7655 2.95822 12.7175 2.87272 12.632C2.78727 12.5465 2.73926 12.4306 2.73926 12.3097V4.10661C2.73926 3.98572 2.78727 3.86984 2.87272 3.78434C2.95822 3.69889 3.0741 3.65088 3.19499 3.65088H5.92936V12.7655H3.19499Z" fill="black" fill-opacity="0.1"/>
<path id="Vector_2" d="M5.47363 3.65104V12.7656C5.47363 13.0173 5.67767 13.2214 5.92936 13.2214C6.18105 13.2214 6.38509 13.0173 6.38509 12.7656V3.65104C6.38509 3.39935 6.18105 3.19531 5.92936 3.19531C5.67767 3.19531 5.47363 3.39935 5.47363 3.65104Z" fill="#1C1C1C"/>
<path id="Vector_3" fill-rule="evenodd" clip-rule="evenodd" d="M2.2832 4.10677C2.2832 4.10677 2.2832 3.72923 2.55016 3.46227C2.55016 3.46227 2.81712 3.19531 3.19466 3.19531H13.2207C13.2207 3.19531 13.5982 3.19531 13.8652 3.46227C13.8652 3.46227 14.1322 3.72923 14.1322 4.10677V12.3099C14.1322 12.3099 14.1322 12.6874 13.8652 12.9544C13.8652 12.9544 13.5982 13.2214 13.2207 13.2214H3.19466C3.19466 13.2214 2.81712 13.2214 2.55016 12.9544C2.55016 12.9544 2.2832 12.6874 2.2832 12.3099L2.2832 4.10677ZM3.19466 4.10677V12.3099H13.2207V4.10677H3.19466Z" fill="#1C1C1C"/>
<path id="Vector_4" d="M2.73991 5.92952H4.1071C4.35879 5.92952 4.56283 5.72549 4.56283 5.4738C4.56283 5.2221 4.35879 5.01807 4.1071 5.01807H2.73991C2.48822 5.01807 2.28418 5.2221 2.28418 5.4738C2.28418 5.72549 2.48822 5.92952 2.73991 5.92952Z" fill="#1C1C1C"/>
<path id="Vector_5" d="M2.73991 7.75277H4.1071C4.35879 7.75277 4.56283 7.54873 4.56283 7.29704C4.56283 7.04535 4.35879 6.84131 4.1071 6.84131H2.73991C2.48822 6.84131 2.28418 7.04535 2.28418 7.29704C2.28418 7.54873 2.48822 7.75277 2.73991 7.75277Z" fill="#1C1C1C"/>
<path id="Vector_6" d="M2.73991 9.57552H4.1071C4.35879 9.57552 4.56283 9.37148 4.56283 9.11979C4.56283 8.8681 4.35879 8.66406 4.1071 8.66406H2.73991C2.48822 8.66406 2.28418 8.8681 2.28418 9.11979C2.28418 9.37148 2.48822 9.57552 2.73991 9.57552Z" fill="#1C1C1C"/>
</g>
</svg>
