<svg width="18" height="18" viewBox="0 0 18 18" fill="none" xmlns="http://www.w3.org/2000/svg">
<g id="Calendar">
<path id="Vector" d="M14.625 2.25H12.9375V1.6875C12.9375 1.53832 12.8782 1.39524 12.7727 1.28975C12.6673 1.18426 12.5242 1.125 12.375 1.125C12.2258 1.125 12.0827 1.18426 11.9773 1.28975C11.8718 1.39524 11.8125 1.53832 11.8125 1.6875V2.25H6.1875V1.6875C6.1875 1.53832 6.12824 1.39524 6.02275 1.28975C5.91726 1.18426 5.77418 1.125 5.625 1.125C5.47582 1.125 5.33274 1.18426 5.22725 1.28975C5.12176 1.39524 5.0625 1.53832 5.0625 1.6875V2.25H3.375C3.07663 2.25 2.79048 2.36853 2.5795 2.5795C2.36853 2.79048 2.25 3.07663 2.25 3.375V14.625C2.25 14.9234 2.36853 15.2095 2.5795 15.4205C2.79048 15.6315 3.07663 15.75 3.375 15.75H14.625C14.9234 15.75 15.2095 15.6315 15.4205 15.4205C15.6315 15.2095 15.75 14.9234 15.75 14.625V3.375C15.75 3.07663 15.6315 2.79048 15.4205 2.5795C15.2095 2.36853 14.9234 2.25 14.625 2.25ZM5.0625 3.375V3.9375C5.0625 4.08668 5.12176 4.22976 5.22725 4.33525C5.33274 4.44074 5.47582 4.5 5.625 4.5C5.77418 4.5 5.91726 4.44074 6.02275 4.33525C6.12824 4.22976 6.1875 4.08668 6.1875 3.9375V3.375H11.8125V3.9375C11.8125 4.08668 11.8718 4.22976 11.9773 4.33525C12.0827 4.44074 12.2258 4.5 12.375 4.5C12.5242 4.5 12.6673 4.44074 12.7727 4.33525C12.8782 4.22976 12.9375 4.08668 12.9375 3.9375V3.375H14.625V5.625H3.375V3.375H5.0625ZM14.625 14.625H3.375V6.75H14.625V14.625ZM7.875 8.4375V12.9375C7.875 13.0867 7.81574 13.2298 7.71025 13.3352C7.60476 13.4407 7.46168 13.5 7.3125 13.5C7.16332 13.5 7.02024 13.4407 6.91475 13.3352C6.80926 13.2298 6.75 13.0867 6.75 12.9375V9.34734L6.43922 9.50344C6.3057 9.5702 6.15113 9.58118 6.00951 9.53398C5.86789 9.48677 5.75082 9.38524 5.68406 9.25172C5.6173 9.1182 5.60632 8.96363 5.65352 8.82201C5.70073 8.68039 5.80226 8.56332 5.93578 8.49656L7.06078 7.93406C7.14657 7.89113 7.24191 7.87086 7.33775 7.87516C7.43358 7.87947 7.52672 7.90821 7.60832 7.95866C7.68991 8.00911 7.75725 8.07959 7.80393 8.1634C7.8506 8.24721 7.87507 8.34157 7.875 8.4375ZM12.0347 10.5785L10.6875 12.375H11.8125C11.9617 12.375 12.1048 12.4343 12.2102 12.5398C12.3157 12.6452 12.375 12.7883 12.375 12.9375C12.375 13.0867 12.3157 13.2298 12.2102 13.3352C12.1048 13.4407 11.9617 13.5 11.8125 13.5H9.5625C9.45804 13.5 9.35564 13.4709 9.26678 13.416C9.17791 13.3611 9.1061 13.2825 9.05939 13.1891C9.01267 13.0956 8.99289 12.991 9.00227 12.887C9.01165 12.7829 9.04982 12.6836 9.1125 12.6L11.1361 9.90211C11.1821 9.84083 11.2151 9.7708 11.2331 9.6963C11.2511 9.6218 11.2537 9.54441 11.2407 9.46889C11.2277 9.39336 11.1994 9.32128 11.1576 9.25708C11.1157 9.19288 11.0612 9.13791 10.9973 9.09554C10.9334 9.05318 10.8616 9.02431 10.7862 9.0107C10.7108 8.9971 10.6333 8.99906 10.5587 9.01645C10.4841 9.03384 10.4138 9.0663 10.3521 9.11183C10.2905 9.15737 10.2388 9.21502 10.2002 9.28125C10.1644 9.34726 10.1157 9.40542 10.057 9.45231C9.99831 9.49919 9.93083 9.53385 9.85853 9.55423C9.78623 9.57461 9.71059 9.5803 9.63605 9.57097C9.56152 9.56164 9.48961 9.53748 9.42456 9.49991C9.35952 9.46234 9.30266 9.41212 9.25734 9.35222C9.21202 9.29232 9.17915 9.22394 9.16068 9.15114C9.14221 9.07833 9.13851 9.00256 9.1498 8.92829C9.16109 8.85403 9.18714 8.78278 9.22641 8.71875C9.41222 8.3972 9.69891 8.14593 10.042 8.00388C10.3852 7.86183 10.7656 7.83695 11.1243 7.93307C11.483 8.0292 11.8 8.24098 12.0261 8.53557C12.2522 8.83017 12.3749 9.19113 12.375 9.5625C12.3762 9.92935 12.2566 10.2864 12.0347 10.5785Z" fill="#1C1C1C"/>
</g>
</svg>
