<svg width="22" height="22" viewBox="0 0 22 22" fill="none" xmlns="http://www.w3.org/2000/svg">
<g id="lucide/circle-help" clip-path="url(#clip0_1045_8032)">
<path id="Vector" d="M8.33217 8.25016C8.54769 7.63752 8.97306 7.12093 9.53297 6.79187C10.0929 6.46281 10.7512 6.34252 11.3913 6.45232C12.0313 6.56211 12.6119 6.89489 13.0302 7.39173C13.4484 7.88857 13.6773 8.51739 13.6763 9.16683C13.6763 11.0002 10.9263 11.9168 10.9263 11.9168M10.9997 15.5835H11.0088M20.1663 11.0002C20.1663 16.0628 16.0623 20.1668 10.9997 20.1668C5.93706 20.1668 1.83301 16.0628 1.83301 11.0002C1.83301 5.93755 5.93706 1.8335 10.9997 1.8335C16.0623 1.8335 20.1663 5.93755 20.1663 11.0002Z" stroke="#444343" stroke-width="2" stroke-linecap="round" stroke-linejoin="round"/>
</g>
<defs>
<clipPath id="clip0_1045_8032">
<rect width="22" height="22" fill="white"/>
</clipPath>
</defs>
</svg>
