<svg width="20" height="20" viewBox="0 0 20 20" fill="none" xmlns="http://www.w3.org/2000/svg">
<g id="Explain">
<g id="Vector">
<path d="M3.125 5.625H16.875C17.2202 5.625 17.5 5.34518 17.5 5C17.5 4.65482 17.2202 4.375 16.875 4.375H3.125C2.77982 4.375 2.5 4.65482 2.5 5C2.5 5.34518 2.77982 5.625 3.125 5.625Z" fill="#1C1C1C"/>
<path d="M3.125 10.625H8.75C9.09518 10.625 9.375 10.3452 9.375 10C9.375 9.65482 9.09518 9.375 8.75 9.375H3.125C2.77982 9.375 2.5 9.65482 2.5 10C2.5 10.3452 2.77982 10.625 3.125 10.625Z" fill="#1C1C1C"/>
<path d="M3.125 15.625H6.25C6.59518 15.625 6.875 15.3452 6.875 15C6.875 14.6548 6.59518 14.375 6.25 14.375H3.125C2.77982 14.375 2.5 14.6548 2.5 15C2.5 15.3452 2.77982 15.625 3.125 15.625Z" fill="#1C1C1C"/>
<path fill-rule="evenodd" clip-rule="evenodd" d="M13.5504 7.9081C13.7517 7.36397 14.5213 7.36397 14.7227 7.9081L15.3029 9.47596C15.3662 9.64703 15.501 9.78192 15.6721 9.84522L17.24 10.4254C17.7841 10.6267 17.7841 11.3963 17.24 11.5977L15.6721 12.1779C15.501 12.2412 15.3662 12.376 15.3029 12.5471L14.7227 14.115C14.5213 14.6591 13.7517 14.6591 13.5504 14.115L13.1392 13.0037L9.49124 16.6516C9.22483 16.9181 8.811 16.9362 8.56692 16.6921C8.32285 16.448 8.34095 16.0342 8.60736 15.7678L12.3063 12.0688L11.0331 11.5977C10.489 11.3963 10.489 10.6267 11.0331 10.4254L12.601 9.84522C12.772 9.78192 12.9069 9.64703 12.9702 9.47596L13.5504 7.9081ZM13.8495 9.80131L14.1365 9.02548L14.4236 9.80131C14.5819 10.229 14.9191 10.5662 15.3468 10.7245L16.1226 11.0115L15.3468 11.2986C14.9191 11.4569 14.5819 11.7941 14.4236 12.2218L14.1365 12.9976L13.8495 12.2218C13.6912 11.7941 13.354 11.4569 12.9263 11.2986L12.1505 11.0115L12.9263 10.7245C13.354 10.5662 13.6912 10.229 13.8495 9.80131Z" fill="#1C1C1C"/>
</g>
</g>
</svg>
