<svg width="20" height="19" viewBox="0 0 20 19" fill="none" xmlns="http://www.w3.org/2000/svg">
<g id="octicon:filter-24">
<path id="Vector" d="M2.29199 4C2.12623 4 1.96726 4.06585 1.85005 4.18306C1.73284 4.30027 1.66699 4.45924 1.66699 4.625C1.66699 4.79076 1.73284 4.94973 1.85005 5.06694C1.96726 5.18415 2.12623 5.25 2.29199 5.25H17.7087C17.8744 5.25 18.0334 5.18415 18.1506 5.06694C18.2678 4.94973 18.3337 4.79076 18.3337 4.625C18.3337 4.45924 18.2678 4.30027 18.1506 4.18306C18.0334 4.06585 17.8744 4 17.7087 4H2.29199ZM5.00033 8.79167C5.00033 8.62591 5.06617 8.46694 5.18338 8.34973C5.30059 8.23252 5.45957 8.16667 5.62533 8.16667H14.3753C14.5411 8.16667 14.7001 8.23252 14.8173 8.34973C14.9345 8.46694 15.0003 8.62591 15.0003 8.79167C15.0003 8.95743 14.9345 9.1164 14.8173 9.23361C14.7001 9.35082 14.5411 9.41667 14.3753 9.41667H5.62533C5.45957 9.41667 5.30059 9.35082 5.18338 9.23361C5.06617 9.1164 5.00033 8.95743 5.00033 8.79167ZM8.33366 12.9067C8.33366 12.7409 8.39951 12.5819 8.51672 12.4647C8.63393 12.3475 8.7929 12.2817 8.95866 12.2817H11.042C11.2078 12.2817 11.3667 12.3475 11.4839 12.4647C11.6011 12.5819 11.667 12.7409 11.667 12.9067C11.667 13.0724 11.6011 13.2314 11.4839 13.3486C11.3667 13.4658 11.2078 13.5317 11.042 13.5317H8.95866C8.7929 13.5317 8.63393 13.4658 8.51672 13.3486C8.39951 13.2314 8.33366 13.0724 8.33366 12.9067Z" fill="black"/>
</g>
</svg>
