<svg width="16" height="16" viewBox="0 0 16 16" fill="none" xmlns="http://www.w3.org/2000/svg">
<g id="Search">
<path id="Vector" d="M13.3372 13.3434C13.2512 13.4281 13.1354 13.4757 13.0147 13.4759C12.8924 13.4754 12.7749 13.4279 12.6865 13.3434L10.1988 10.85C9.15106 11.73 7.80406 12.1716 6.43869 12.0826C5.07332 11.9936 3.79502 11.3809 2.87039 10.3724C1.94575 9.36382 1.44618 8.03724 1.47586 6.6693C1.50554 5.30136 2.06218 3.99768 3.02969 3.03018C3.99719 2.06267 5.30087 1.50603 6.66881 1.47635C8.03675 1.44667 9.36334 1.94624 10.3719 2.87088C11.3805 3.79551 11.9931 5.07381 12.0821 6.43918C12.1711 7.80454 11.7295 9.15155 10.8495 10.1993L13.3372 12.687C13.3807 12.7298 13.4153 12.7809 13.4389 12.8373C13.4625 12.8936 13.4746 12.9541 13.4746 13.0152C13.4746 13.0763 13.4625 13.1368 13.4389 13.1931C13.4153 13.2495 13.3807 13.3006 13.3372 13.3434ZM6.79549 11.1725C7.66107 11.1725 8.50722 10.9158 9.22693 10.4349C9.94664 9.95399 10.5076 9.27048 10.8388 8.47078C11.1701 7.67109 11.2567 6.79112 11.0879 5.94217C10.919 5.09321 10.5022 4.3134 9.89013 3.70134C9.27807 3.08928 8.49825 2.67246 7.6493 2.50359C6.80034 2.33472 5.92038 2.42139 5.12068 2.75264C4.32098 3.08388 3.63747 3.64483 3.15658 4.36453C2.67568 5.08424 2.41901 5.93039 2.41901 6.79598C2.42053 7.95622 2.88211 9.06851 3.70253 9.88893C4.52295 10.7094 5.63524 11.1709 6.79549 11.1725Z" fill="black"/>
</g>
</svg>
