<svg width="22" height="22" viewBox="0 0 22 22" fill="none" xmlns="http://www.w3.org/2000/svg">
<g id="Export">
<path id="Vector" d="M18.5625 9.62505V17.8751C18.5625 18.2397 18.4176 18.5895 18.1598 18.8473C17.9019 19.1052 17.5522 19.2501 17.1875 19.2501H4.8125C4.44783 19.2501 4.09809 19.1052 3.84023 18.8473C3.58237 18.5895 3.4375 18.2397 3.4375 17.8751V9.62505C3.4375 9.26038 3.58237 8.91064 3.84023 8.65278C4.09809 8.39492 4.44783 8.25005 4.8125 8.25005H6.875C7.05734 8.25005 7.2322 8.32249 7.36114 8.45142C7.49007 8.58035 7.5625 8.75522 7.5625 8.93755C7.5625 9.11989 7.49007 9.29476 7.36114 9.42369C7.2322 9.55262 7.05734 9.62505 6.875 9.62505H4.8125V17.8751H17.1875V9.62505H15.125C14.9427 9.62505 14.7678 9.55262 14.6389 9.42369C14.5099 9.29476 14.4375 9.11989 14.4375 8.93755C14.4375 8.75522 14.5099 8.58035 14.6389 8.45142C14.7678 8.32249 14.9427 8.25005 15.125 8.25005H17.1875C17.5522 8.25005 17.9019 8.39492 18.1598 8.65278C18.4176 8.91064 18.5625 9.26038 18.5625 9.62505ZM8.04891 5.98646L10.3125 3.72201V11.6876C10.3125 11.8699 10.3849 12.0448 10.5139 12.1737C10.6428 12.3026 10.8177 12.3751 11 12.3751C11.1823 12.3751 11.3572 12.3026 11.4861 12.1737C11.6151 12.0448 11.6875 11.8699 11.6875 11.6876V3.72201L13.9511 5.98646C14.0801 6.11546 14.2551 6.18794 14.4375 6.18794C14.6199 6.18794 14.7949 6.11546 14.9239 5.98646C15.0529 5.85746 15.1254 5.68249 15.1254 5.50005C15.1254 5.31762 15.0529 5.14265 14.9239 5.01365L11.4864 1.57615C11.4226 1.51223 11.3467 1.46152 11.2633 1.42692C11.1798 1.39232 11.0903 1.37451 11 1.37451C10.9097 1.37451 10.8202 1.39232 10.7367 1.42692C10.6533 1.46152 10.5774 1.51223 10.5136 1.57615L7.07609 5.01365C6.94709 5.14265 6.87462 5.31762 6.87462 5.50005C6.87462 5.68249 6.94709 5.85746 7.07609 5.98646C7.2051 6.11546 7.38006 6.18794 7.5625 6.18794C7.74494 6.18794 7.9199 6.11546 8.04891 5.98646Z" fill="#1C1C1C"/>
</g>
</svg>
