<svg width="22" height="22" viewBox="0 0 22 22" fill="none" xmlns="http://www.w3.org/2000/svg">
<g id="ShareNetwork">
<path id="Vector" d="M15.125 13.7498C14.6663 13.7497 14.2124 13.8416 13.7899 14.02C13.3674 14.1985 12.9851 14.4599 12.6654 14.7888L8.70371 12.2425C9.01535 11.4433 9.01535 10.5563 8.70371 9.75717L12.6654 7.21084C13.2605 7.82041 14.0607 8.18731 14.911 8.24039C15.7612 8.29348 16.6008 8.02898 17.2671 7.49817C17.9334 6.96736 18.3788 6.20805 18.5171 5.36747C18.6554 4.52689 18.4766 3.66491 18.0154 2.94866C17.5542 2.23241 16.8435 1.71291 16.0211 1.49088C15.1987 1.26885 14.3231 1.36012 13.5641 1.74698C12.8051 2.13384 12.2169 2.78874 11.9133 3.5847C11.6098 4.38066 11.6126 5.26098 11.9212 6.05498L7.95949 8.60131C7.48243 8.11153 6.87014 7.77514 6.2009 7.63515C5.53166 7.49516 4.83588 7.55792 4.2025 7.81541C3.56912 8.0729 3.02691 8.51342 2.64519 9.08067C2.26346 9.64791 2.05957 10.3161 2.05957 10.9998C2.05957 11.6835 2.26346 12.3517 2.64519 12.919C3.02691 13.4862 3.56912 13.9267 4.2025 14.1842C4.83588 14.4417 5.53166 14.5045 6.2009 14.3645C6.87014 14.2245 7.48243 13.8881 7.95949 13.3983L11.9212 15.9447C11.6558 16.6292 11.6165 17.3807 11.8091 18.0891C12.0018 18.7976 12.4161 19.4258 12.9916 19.8817C13.567 20.3376 14.2733 20.5973 15.007 20.6228C15.7408 20.6482 16.4634 20.4381 17.069 20.0232C17.6747 19.6082 18.1316 19.0103 18.3729 18.3169C18.6141 17.6235 18.627 16.8711 18.4097 16.1698C18.1924 15.4685 17.7562 14.8553 17.1652 14.4198C16.5741 13.9843 15.8591 13.7495 15.125 13.7498ZM15.125 2.74982C15.5329 2.74982 15.9317 2.87079 16.2708 3.09742C16.61 3.32405 16.8744 3.64617 17.0305 4.02304C17.1866 4.39991 17.2274 4.81461 17.1478 5.2147C17.0683 5.61478 16.8718 5.98229 16.5834 6.27073C16.2949 6.55918 15.9274 6.75561 15.5273 6.83519C15.1273 6.91477 14.7126 6.87393 14.3357 6.71782C13.9588 6.56172 13.6367 6.29736 13.4101 5.95819C13.1834 5.61901 13.0625 5.22025 13.0625 4.81232C13.0625 4.26531 13.2798 3.74071 13.6666 3.35392C14.0533 2.96712 14.578 2.74982 15.125 2.74982ZM5.49996 13.0623C5.09204 13.0623 4.69328 12.9414 4.3541 12.7147C4.01492 12.4881 3.75057 12.166 3.59446 11.7891C3.43836 11.4122 3.39751 10.9975 3.47709 10.5974C3.55668 10.1974 3.75311 9.82986 4.04155 9.54141C4.33 9.25297 4.6975 9.05653 5.09759 8.97695C5.49767 8.89737 5.91237 8.93822 6.28925 9.09432C6.66612 9.25043 6.98824 9.51478 7.21487 9.85396C7.4415 10.1931 7.56246 10.5919 7.56246 10.9998C7.56246 11.5468 7.34516 12.0714 6.95837 12.4582C6.57158 12.845 6.04697 13.0623 5.49996 13.0623ZM15.125 19.2498C14.717 19.2498 14.3183 19.1289 13.9791 18.9022C13.6399 18.6756 13.3756 18.3535 13.2195 17.9766C13.0634 17.5997 13.0225 17.185 13.1021 16.7849C13.1817 16.3849 13.3781 16.0174 13.6666 15.7289C13.955 15.4405 14.3225 15.244 14.7226 15.1645C15.1227 15.0849 15.5374 15.1257 15.9142 15.2818C16.2911 15.4379 16.6132 15.7023 16.8399 16.0415C17.0665 16.3806 17.1875 16.7794 17.1875 17.1873C17.1875 17.7343 16.9702 18.2589 16.5834 18.6457C16.1966 19.0325 15.672 19.2498 15.125 19.2498Z" fill="#1C1C1C"/>
</g>
</svg>
