<svg width="32" height="32" viewBox="0 0 32 32" fill="none" xmlns="http://www.w3.org/2000/svg">
<g id="Star">
<path id="Vector" d="M29.9004 12.1615C29.7793 11.7882 29.5511 11.4588 29.2441 11.2143C28.9372 10.9698 28.5651 10.821 28.1742 10.7865L20.7504 10.1465L17.8404 3.22649C17.6889 2.86338 17.4334 2.55322 17.1059 2.33506C16.7785 2.1169 16.3939 2.00049 16.0004 2.00049C15.607 2.00049 15.2223 2.1169 14.8949 2.33506C14.5675 2.55322 14.3119 2.86338 14.1604 3.22649L11.2592 10.1465L3.82667 10.7902C3.43421 10.8232 3.06023 10.9713 2.75162 11.216C2.443 11.4607 2.2135 11.791 2.09188 12.1656C1.97027 12.5402 1.96196 12.9424 2.06799 13.3217C2.17402 13.701 2.38968 14.0405 2.68792 14.2977L8.32667 19.2252L6.63667 26.5427C6.5473 26.9257 6.5728 27.3264 6.70998 27.695C6.84715 28.0635 7.08991 28.3834 7.40791 28.6147C7.72591 28.846 8.10503 28.9784 8.49789 28.9954C8.89074 29.0124 9.27988 28.9132 9.61667 28.7102L15.9917 24.8352L22.3804 28.7102C22.7172 28.9132 23.1064 29.0124 23.4992 28.9954C23.8921 28.9784 24.2712 28.846 24.5892 28.6147C24.9072 28.3834 25.1499 28.0635 25.2871 27.695C25.4243 27.3264 25.4498 26.9257 25.3604 26.5427L23.6717 19.2177L29.3092 14.2977C29.6074 14.0396 29.8226 13.6991 29.9278 13.319C30.033 12.9389 30.0235 12.5362 29.9004 12.1615ZM27.9979 12.7865L22.3604 17.7065C22.086 17.9452 21.8819 18.2541 21.77 18.6001C21.6582 18.9461 21.6427 19.3161 21.7254 19.6702L23.4192 27.0002L17.0354 23.1252C16.724 22.9356 16.3663 22.8352 16.0017 22.8352C15.637 22.8352 15.2794 22.9356 14.9679 23.1252L8.59292 27.0002L10.2754 19.6752C10.3581 19.3211 10.3427 18.9511 10.2308 18.6051C10.1189 18.2591 9.91479 17.9502 9.64042 17.7115L4.00042 12.794C3.99996 12.7903 3.99996 12.7865 4.00042 12.7827L11.4304 12.1402C11.7932 12.1083 12.1403 11.9779 12.4344 11.7631C12.7285 11.5483 12.9583 11.2573 13.0992 10.9215L16.0004 4.01024L18.9004 10.9215C19.0413 11.2573 19.2711 11.5483 19.5652 11.7631C19.8593 11.9779 20.2064 12.1083 20.5692 12.1402L28.0004 12.7827C28.0004 12.7827 28.0004 12.7902 28.0004 12.7915L27.9979 12.7865Z" fill="#1C1C1C"/>
</g>
</svg>
