<svg width="18" height="18" viewBox="0 0 18 18" fill="none" xmlns="http://www.w3.org/2000/svg">
<g id="Target">
<path id="Vector" d="M15.5998 5.84722C16.3804 7.47974 16.5286 9.34353 16.0158 11.0789C15.503 12.8142 14.3655 14.2981 12.823 15.2441C11.2805 16.1902 9.44219 16.5313 7.66294 16.2017C5.88369 15.872 4.28961 14.895 3.18835 13.4592C2.0871 12.0233 1.55673 10.2305 1.69963 8.42659C1.84252 6.62271 2.64854 4.93571 3.96212 3.69116C5.2757 2.44662 7.00372 1.73276 8.81268 1.68736C10.6216 1.64197 12.3833 2.26826 13.7576 3.44535L15.3516 1.85066C15.4572 1.74511 15.6003 1.68582 15.7496 1.68582C15.8989 1.68582 16.042 1.74511 16.1476 1.85066C16.2531 1.95621 16.3124 2.09936 16.3124 2.24863C16.3124 2.3979 16.2531 2.54105 16.1476 2.6466L9.39756 9.3966C9.29201 9.50215 9.14886 9.56144 8.99959 9.56144C8.85033 9.56144 8.70717 9.50215 8.60162 9.3966C8.49608 9.29105 8.43678 9.1479 8.43678 8.99863C8.43678 8.84936 8.49608 8.70621 8.60162 8.60066L10.5507 6.6516C10.0225 6.30225 9.3918 6.14141 8.76079 6.19509C8.12978 6.24878 7.53535 6.51386 7.07374 6.94742C6.61213 7.38098 6.31036 7.95764 6.21727 8.58405C6.12418 9.21047 6.24523 9.84996 6.56082 10.399C6.8764 10.9481 7.36806 11.3746 7.95619 11.6094C8.54432 11.8443 9.19451 11.8738 9.80149 11.6931C10.4085 11.5125 10.9367 11.1323 11.3007 10.614C11.6647 10.0958 11.8432 9.46988 11.8072 8.83761C11.803 8.76375 11.8135 8.68978 11.8379 8.61995C11.8623 8.55011 11.9003 8.48577 11.9496 8.4306C11.9988 8.37543 12.0585 8.33051 12.1252 8.2984C12.1918 8.26629 12.2642 8.24763 12.338 8.24347C12.4872 8.23508 12.6336 8.2863 12.745 8.38585C12.8002 8.43515 12.8451 8.49483 12.8772 8.56148C12.9094 8.62814 12.928 8.70046 12.9322 8.77433C12.9835 9.66926 12.7278 10.5549 12.2076 11.2849C11.6873 12.0148 10.9336 12.5454 10.0709 12.789C9.20825 13.0325 8.2883 12.9744 7.46312 12.6243C6.63794 12.2742 5.95692 11.6529 5.53264 10.8633C5.10835 10.0737 4.96618 9.16296 5.12964 8.2816C5.29309 7.40024 5.75238 6.60103 6.4316 6.01606C7.11081 5.4311 7.96929 5.0954 8.86515 5.06444C9.761 5.03349 10.6406 5.30913 11.3586 5.84582L12.9582 4.24621C11.7859 3.27294 10.2954 2.76709 8.77294 2.82581C7.25046 2.88453 5.80334 3.50368 4.70954 4.56435C3.61573 5.62501 2.95237 7.0524 2.84686 8.57237C2.74134 10.0923 3.20112 11.5977 4.13788 12.7993C5.07463 14.0009 6.42232 14.8141 7.92209 15.0826C9.42186 15.3511 10.968 15.0561 12.2635 14.2541C13.5589 13.4522 14.5124 12.1998 14.9409 10.7377C15.3693 9.27555 15.2424 7.70666 14.5845 6.33238C14.5202 6.19774 14.512 6.04306 14.5617 5.90236C14.6114 5.76167 14.715 5.64648 14.8496 5.58215C14.9842 5.51781 15.1389 5.50959 15.2796 5.55931C15.4203 5.60902 15.5355 5.71258 15.5998 5.84722Z" fill="#1C1C1C"/>
</g>
</svg>
