<svg width="23" height="23" viewBox="0 0 23 23" fill="none" xmlns="http://www.w3.org/2000/svg">
<g id="User">
<path id="Vector" d="M15.5226 13.4693C15.2259 14.2329 14.7436 14.9105 14.1192 15.4408C13.4949 15.9711 12.7481 16.3375 11.9466 16.5067C11.1451 16.6759 10.314 16.6427 9.52856 16.41C8.7431 16.1773 8.02804 15.7524 7.44803 15.1739C6.86803 14.5954 6.44137 13.8814 6.20665 13.0966C5.97192 12.3117 5.93654 11.4808 6.10368 10.6788C6.27083 9.87682 6.63525 9.12917 7.16397 8.50344C7.6927 7.87771 8.36905 7.39364 9.13188 7.095M10.939 11.6786L15.0462 7.57143M15.0462 7.57143L18.3319 8.39286L21.6176 5.10714L18.3319 4.28571L17.5105 1L14.2247 4.28571L15.0462 7.57143Z" stroke="black" stroke-linecap="round" stroke-linejoin="round"/>
<path id="Vector_2" d="M22.3235 12.5C22.1613 14.538 21.4175 16.4866 20.1805 18.1143C18.9435 19.742 17.2652 20.9803 15.3451 21.6823C13.4249 22.3842 11.3436 22.5202 9.34849 22.0742C7.35334 21.6281 5.52817 20.6186 4.08984 19.1657C2.6515 17.7129 1.66045 15.8777 1.23443 13.8781C0.808404 11.8786 0.965321 9.79878 1.68653 7.8858C2.40774 5.97282 3.66294 4.30707 5.30298 3.08647C6.94303 1.86586 8.89899 1.14169 10.9385 1" stroke="black" stroke-linecap="round" stroke-linejoin="round"/>
</g>
</svg>
