<svg width="40" height="37" viewBox="0 0 40 37" fill="none" xmlns="http://www.w3.org/2000/svg">
<g id="trash_option">
<path id="Vector" d="M26.3464 14.6153H23.4618V14.0384C23.4618 13.5794 23.2794 13.1391 22.9548 12.8145C22.6303 12.49 22.19 12.3076 21.731 12.3076H18.2695C17.8104 12.3076 17.3702 12.49 17.0456 12.8145C16.721 13.1391 16.5387 13.5794 16.5387 14.0384V14.6153H13.6541C13.5011 14.6153 13.3543 14.6761 13.2461 14.7843C13.1379 14.8925 13.0771 15.0392 13.0771 15.1922C13.0771 15.3452 13.1379 15.492 13.2461 15.6002C13.3543 15.7084 13.5011 15.7692 13.6541 15.7692H14.231V26.1538C14.231 26.4598 14.3526 26.7533 14.5689 26.9697C14.7853 27.1861 15.0788 27.3076 15.3848 27.3076H24.6156C24.9216 27.3076 25.2151 27.1861 25.4315 26.9697C25.6479 26.7533 25.7695 26.4598 25.7695 26.1538V15.7692H26.3464C26.4994 15.7692 26.6461 15.7084 26.7543 15.6002C26.8625 15.492 26.9233 15.3452 26.9233 15.1922C26.9233 15.0392 26.8625 14.8925 26.7543 14.7843C26.6461 14.6761 26.4994 14.6153 26.3464 14.6153ZM17.6925 14.0384C17.6925 13.8854 17.7533 13.7386 17.8615 13.6304C17.9697 13.5222 18.1164 13.4615 18.2695 13.4615H21.731C21.884 13.4615 22.0307 13.5222 22.1389 13.6304C22.2471 13.7386 22.3079 13.8854 22.3079 14.0384V14.6153H17.6925V14.0384ZM24.6156 26.1538H15.3848V15.7692H24.6156V26.1538ZM18.8464 18.6538V23.2692C18.8464 23.4222 18.7856 23.5689 18.6774 23.6771C18.5692 23.7853 18.4225 23.8461 18.2695 23.8461C18.1164 23.8461 17.9697 23.7853 17.8615 23.6771C17.7533 23.5689 17.6925 23.4222 17.6925 23.2692V18.6538C17.6925 18.5008 17.7533 18.354 17.8615 18.2458C17.9697 18.1376 18.1164 18.0768 18.2695 18.0768C18.4225 18.0768 18.5692 18.1376 18.6774 18.2458C18.7856 18.354 18.8464 18.5008 18.8464 18.6538ZM22.3079 18.6538V23.2692C22.3079 23.4222 22.2471 23.5689 22.1389 23.6771C22.0307 23.7853 21.884 23.8461 21.731 23.8461C21.578 23.8461 21.4312 23.7853 21.323 23.6771C21.2149 23.5689 21.1541 23.4222 21.1541 23.2692V18.6538C21.1541 18.5008 21.2149 18.354 21.323 18.2458C21.4312 18.1376 21.578 18.0768 21.731 18.0768C21.884 18.0768 22.0307 18.1376 22.1389 18.2458C22.2471 18.354 22.3079 18.5008 22.3079 18.6538Z" fill="#1C1C1C"/>
</g>
</svg>
